<?xml version="1.0" encoding="UTF-8"?>
<!DOCTYPE svg PUBLIC "-//W3C//DTD SVG 1.1//EN" "http://www.w3.org/Graphics/SVG/1.1/DTD/svg11.dtd">
<svg xmlns="http://www.w3.org/2000/svg" version="1.1" width="640px" height="640px" style="shape-rendering:geometricPrecision; text-rendering:geometricPrecision; image-rendering:optimizeQuality; fill-rule:evenodd; clip-rule:evenodd" xmlns:xlink="http://www.w3.org/1999/xlink">
<g><path style="opacity:1" fill="#fefefe" d="M -0.5,-0.5 C 212.833,-0.5 426.167,-0.5 639.5,-0.5C 639.5,212.833 639.5,426.167 639.5,639.5C 426.167,639.5 212.833,639.5 -0.5,639.5C -0.5,426.167 -0.5,212.833 -0.5,-0.5 Z"/></g>
<g><path style="opacity:1" fill="#968d7d" d="M 322.5,112.5 C 318.404,111.715 315.07,112.882 312.5,116C 307.237,117.306 302.237,119.14 297.5,121.5C 303.737,117.706 310.071,113.872 316.5,110C 318.979,109.638 320.979,110.471 322.5,112.5 Z"/></g>
<g><path style="opacity:1" fill="#8e8068" d="M 322.5,112.5 C 328.035,115.767 333.702,118.767 339.5,121.5C 355.401,131.616 371.734,140.95 388.5,149.5C 393.918,153.591 399.585,157.258 405.5,160.5C 404.986,162.366 404.32,164.2 403.5,166C 403.833,166.5 404.167,167 404.5,167.5C 406.401,163.622 408.234,163.622 410,167.5C 410.478,172.868 410.145,178.201 409,183.5C 408.209,181.396 406.709,180.063 404.5,179.5C 398.998,178.743 393.664,177.41 388.5,175.5C 373.885,167.53 359.552,159.197 345.5,150.5C 344.522,148.188 342.855,146.522 340.5,145.5C 339.614,144.675 339.281,143.675 339.5,142.5C 340.552,142.649 341.552,142.483 342.5,142C 340.782,141.654 339.115,141.154 337.5,140.5C 336.508,137.309 334.674,135.642 332,135.5C 331.667,136.167 331.333,136.833 331,137.5C 324.985,135.58 318.818,134.246 312.5,133.5C 312.436,134.365 312.103,135.365 311.5,136.5C 310.624,137.251 309.624,137.751 308.5,138C 305.957,138.14 303.623,138.806 301.5,140C 297.082,140.182 292.749,140.348 288.5,140.5C 287.707,139.645 288.04,138.811 289.5,138C 288.446,136.612 288.28,135.112 289,133.5C 291.692,129.323 294.525,125.323 297.5,121.5C 302.237,119.14 307.237,117.306 312.5,116C 315.07,112.882 318.404,111.715 322.5,112.5 Z"/></g>
<g><path style="opacity:1" fill="#88806b" d="M 297.5,121.5 C 294.525,125.323 291.692,129.323 289,133.5C 288.28,135.112 288.446,136.612 289.5,138C 288.04,138.811 287.707,139.645 288.5,140.5C 292.749,140.348 297.082,140.182 301.5,140C 303.623,138.806 305.957,138.14 308.5,138C 309.624,137.751 310.624,137.251 311.5,136.5C 312.103,135.365 312.436,134.365 312.5,133.5C 318.818,134.246 324.985,135.58 331,137.5C 331.333,136.833 331.667,136.167 332,135.5C 334.674,135.642 336.508,137.309 337.5,140.5C 339.115,141.154 340.782,141.654 342.5,142C 341.552,142.483 340.552,142.649 339.5,142.5C 339.281,143.675 339.614,144.675 340.5,145.5C 342.855,146.522 344.522,148.188 345.5,150.5C 340.83,148.162 336.164,145.828 331.5,143.5C 327.421,140.283 322.921,137.616 318,135.5C 303.074,143.712 288.241,152.045 273.5,160.5C 273.631,159.624 273.298,158.957 272.5,158.5C 271.583,159.127 270.583,159.461 269.5,159.5C 269.684,156.827 270.851,156.16 273,157.5C 273.749,156.365 273.583,155.365 272.5,154.5C 271.914,154.709 271.414,155.043 271,155.5C 269.829,153.411 268.496,151.411 267,149.5C 265.846,150.743 264.512,151.743 263,152.5C 260.5,152.457 258,152.123 255.5,151.5C 255.561,148.27 257.228,146.437 260.5,146C 259.748,145.329 259.414,144.496 259.5,143.5C 271.886,135.803 284.553,128.47 297.5,121.5 Z"/></g>
<g><path style="opacity:1" fill="#f7f3ea" d="M 388.5,149.5 C 371.734,140.95 355.401,131.616 339.5,121.5C 342.817,121.2 346.151,120.866 349.5,120.5C 351.586,122.883 353.586,125.383 355.5,128C 357.167,128.833 358.833,129.667 360.5,130.5C 360.833,129.833 361.167,129.167 361.5,128.5C 362.732,129.145 364.065,129.311 365.5,129C 364.833,130 364.167,131 363.5,132C 365.667,133.5 367.833,135 370,136.5C 371.016,135.366 371.683,135.699 372,137.5C 372.333,137.167 372.667,136.833 373,136.5C 373.374,137.416 373.874,138.25 374.5,139C 376.78,139.233 378.78,140.066 380.5,141.5C 381.086,141.291 381.586,140.957 382,140.5C 384.368,143.411 386.535,146.411 388.5,149.5 Z"/></g>
<g><path style="opacity:1" fill="#857a69" d="M 259.5,143.5 C 259.414,144.496 259.748,145.329 260.5,146C 257.228,146.437 255.561,148.27 255.5,151.5C 258,152.123 260.5,152.457 263,152.5C 264.512,151.743 265.846,150.743 267,149.5C 268.496,151.411 269.829,153.411 271,155.5C 271.414,155.043 271.914,154.709 272.5,154.5C 273.583,155.365 273.749,156.365 273,157.5C 270.851,156.16 269.684,156.827 269.5,159.5C 265.737,160.252 262.404,161.919 259.5,164.5C 255.555,165.491 251.555,165.824 247.5,165.5C 247.5,166.5 247.5,167.5 247.5,168.5C 243.551,168.693 243.551,169.193 247.5,170C 245.023,171.705 243.689,173.705 243.5,176C 240.134,176.33 236.801,175.997 233.5,175C 232.167,174 232.167,173 233.5,172C 232.672,171.085 231.672,170.419 230.5,170C 231.833,168.333 231.833,166.667 230.5,165C 232.189,162.054 233.856,159.554 235.5,157.5C 243.215,152.475 251.215,147.808 259.5,143.5 Z"/></g>
<g><path style="opacity:1" fill="#f1eee2" d="M 388.5,149.5 C 392.838,149.542 396.505,151.042 399.5,154C 399.167,154.333 398.833,154.667 398.5,155C 405.351,156.332 410.851,159.165 415,163.5C 415.692,164.437 415.525,165.103 414.5,165.5C 411.701,163.597 408.701,161.931 405.5,160.5C 399.585,157.258 393.918,153.591 388.5,149.5 Z"/></g>
<g><path style="opacity:1" fill="#f9f6ef" d="M 331.5,143.5 C 328.729,143.579 326.063,143.079 323.5,142C 324.711,141.107 324.711,140.274 323.5,139.5C 322.402,140.615 321.235,140.615 320,139.5C 319.055,139.905 318.388,140.572 318,141.5C 317.667,141.167 317.333,140.833 317,140.5C 315.626,143.275 313.793,145.608 311.5,147.5C 310.045,148.39 308.711,148.39 307.5,147.5C 305.833,148.833 304.167,150.167 302.5,151.5C 301.522,151.023 300.689,150.357 300,149.5C 299.667,150.167 299.333,150.833 299,151.5C 298.15,150.576 297.15,150.576 296,151.5C 293.833,152.828 292,154.494 290.5,156.5C 286.556,155.204 283.556,156.371 281.5,160C 282.167,160.333 282.833,160.667 283.5,161C 282.183,162.659 280.517,163.826 278.5,164.5C 277.614,165.325 277.281,166.325 277.5,167.5C 276.178,167.67 275.011,167.337 274,166.5C 272.113,168.886 269.613,170.053 266.5,170C 261.267,173.87 255.767,177.37 250,180.5C 249.667,179.833 249.333,179.167 249,178.5C 247.038,180.429 244.872,182.762 242.5,185.5C 240.132,183.777 237.466,183.11 234.5,183.5C 247.3,175.596 260.3,167.929 273.5,160.5C 288.241,152.045 303.074,143.712 318,135.5C 322.921,137.616 327.421,140.283 331.5,143.5 Z"/></g>
<g><path style="opacity:1" fill="#8c8476" d="M 405.5,160.5 C 408.701,161.931 411.701,163.597 414.5,165.5C 414.831,173.86 414.498,182.193 413.5,190.5C 404.905,185.712 396.572,180.712 388.5,175.5C 393.664,177.41 398.998,178.743 404.5,179.5C 406.709,180.063 408.209,181.396 409,183.5C 410.145,178.201 410.478,172.868 410,167.5C 408.234,163.622 406.401,163.622 404.5,167.5C 404.167,167 403.833,166.5 403.5,166C 404.32,164.2 404.986,162.366 405.5,160.5 Z"/></g>
<g><path style="opacity:1" fill="#81796c" d="M 235.5,157.5 C 233.856,159.554 232.189,162.054 230.5,165C 231.833,166.667 231.833,168.333 230.5,170C 231.672,170.419 232.672,171.085 233.5,172C 232.167,173 232.167,174 233.5,175C 236.801,175.997 240.134,176.33 243.5,176C 243.689,173.705 245.023,171.705 247.5,170C 243.551,169.193 243.551,168.693 247.5,168.5C 247.5,167.5 247.5,166.5 247.5,165.5C 251.555,165.824 255.555,165.491 259.5,164.5C 262.404,161.919 265.737,160.252 269.5,159.5C 270.583,159.461 271.583,159.127 272.5,158.5C 273.298,158.957 273.631,159.624 273.5,160.5C 260.3,167.929 247.3,175.596 234.5,183.5C 230.7,185.234 227.034,187.234 223.5,189.5C 222.185,180.932 222.185,172.265 223.5,163.5C 227.252,161.101 231.252,159.101 235.5,157.5 Z"/></g>
<g><path style="opacity:1" fill="#a8a7a1" d="M 223.5,163.5 C 222.185,172.265 222.185,180.932 223.5,189.5C 223.44,190.043 223.107,190.376 222.5,190.5C 222.167,186 221.833,181.5 221.5,177C 221.507,172.114 222.174,167.614 223.5,163.5 Z"/></g>
<g><path style="opacity:1" fill="#7e746a" d="M 288.5,190.5 C 287.673,195.651 287.173,200.984 287,206.5C 285.899,212.254 284.733,217.254 283.5,221.5C 280.886,221.723 279.219,220.556 278.5,218C 276.287,217.374 274.12,217.541 272,218.5C 268.973,217.244 266.14,215.744 263.5,214C 261.527,213.505 259.527,213.338 257.5,213.5C 257.674,218.021 257.007,218.355 255.5,214.5C 254.167,213.167 252.833,213.167 251.5,214.5C 252.95,215.85 253.617,217.516 253.5,219.5C 251.334,219.579 249.334,220.246 247.5,221.5C 245.5,220.5 243.5,219.5 241.5,218.5C 240.754,217.264 240.421,215.93 240.5,214.5C 242.144,214.286 243.644,214.62 245,215.5C 245.833,214 247,212.833 248.5,212C 251.683,211.661 254.35,210.328 256.5,208C 258.553,206.798 260.553,206.464 262.5,207C 263.061,205.434 262.394,204.101 260.5,203C 262.464,202.56 264.63,201.726 267,200.5C 267.614,198.687 267.281,198.353 266,199.5C 265.5,198.5 265,197.5 264.5,196.5C 265.524,195.148 266.524,193.815 267.5,192.5C 274.067,188.235 280.9,184.235 288,180.5C 288.498,183.817 288.665,187.15 288.5,190.5 Z"/></g>
<g><path style="opacity:1" fill="#7f736a" d="M 349.5,181.5 C 350.833,182.5 352.167,183.5 353.5,184.5C 352.335,185.496 351.668,186.829 351.5,188.5C 352.263,191.692 352.263,194.692 351.5,197.5C 352.098,198.795 352.598,200.128 353,201.5C 353.667,202.833 354.333,202.833 355,201.5C 355.167,202.5 355.333,203.5 355.5,204.5C 354.032,207.383 353.532,210.383 354,213.5C 358.066,214.464 362.233,214.797 366.5,214.5C 367.092,217.127 367.425,219.794 367.5,222.5C 365.859,223.871 364.859,225.704 364.5,228C 364.507,235.33 364.507,242.497 364.5,249.5C 361.709,253.554 358.375,254.22 354.5,251.5C 353.738,252.628 353.071,253.795 352.5,255C 350.658,254.932 348.991,255.099 347.5,255.5C 346.843,230.477 347.51,205.811 349.5,181.5 Z"/></g>
<g><path style="opacity:1" fill="#897e75" d="M 353.5,184.5 C 373.919,195.457 394.085,206.791 414,218.5C 414.5,305.499 414.667,392.499 414.5,479.5C 414.167,479.5 413.833,479.5 413.5,479.5C 413.5,455.5 413.5,431.5 413.5,407.5C 413.5,385.833 413.5,364.167 413.5,342.5C 413.5,326.833 413.5,311.167 413.5,295.5C 414.126,276.204 413.46,257.038 411.5,238C 411.735,237.127 412.069,236.293 412.5,235.5C 411.05,234.15 410.383,232.484 410.5,230.5C 406.822,229.414 403.155,229.414 399.5,230.5C 399.018,233.52 398.685,236.52 398.5,239.5C 397.679,236.553 397.179,233.553 397,230.5C 396.147,228.875 395.147,228.542 394,229.5C 393.5,247.497 393.333,265.497 393.5,283.5C 392.584,295.469 392.251,307.469 392.5,319.5C 392.823,325.69 392.49,331.69 391.5,337.5C 391.833,301.827 391.5,266.16 390.5,230.5C 383.561,226.533 376.561,222.866 369.5,219.5C 369.5,220.5 369.5,221.5 369.5,222.5C 368.833,222.5 368.167,222.5 367.5,222.5C 367.425,219.794 367.092,217.127 366.5,214.5C 362.233,214.797 358.066,214.464 354,213.5C 353.532,210.383 354.032,207.383 355.5,204.5C 355.333,203.5 355.167,202.5 355,201.5C 354.333,202.833 353.667,202.833 353,201.5C 352.598,200.128 352.098,198.795 351.5,197.5C 352.263,194.692 352.263,191.692 351.5,188.5C 351.668,186.829 352.335,185.496 353.5,184.5 Z"/></g>
<g><path style="opacity:1" fill="#817978" d="M 288.5,190.5 C 288.055,216.871 288.555,243.204 290,269.5C 293.21,278.538 299.043,285.205 307.5,289.5C 304.729,289.579 302.063,289.079 299.5,288C 298.514,285.64 296.514,283.807 293.5,282.5C 291.538,279.135 290.038,275.468 289,271.5C 288.667,271.833 288.333,272.167 288,272.5C 288.052,257.706 287.052,243.039 285,228.5C 282.581,224.864 279.748,224.53 276.5,227.5C 273.964,227.131 272.131,225.797 271,223.5C 270.667,231.5 270.333,239.5 270,247.5C 269.667,244.167 269.333,240.833 269,237.5C 268.667,237.833 268.333,238.167 268,238.5C 267.501,244.491 267.334,250.491 267.5,256.5C 267.5,260.5 267.5,264.5 267.5,268.5C 266.504,252.342 266.17,236.009 266.5,219.5C 263.911,219.461 261.911,220.461 260.5,222.5C 255.308,225.013 250.142,227.68 245,230.5C 244.5,247.497 244.333,264.497 244.5,281.5C 243.521,278.375 243.187,275.042 243.5,271.5C 243.465,257.124 243.465,242.958 243.5,229C 241.699,228.683 241.366,228.016 242.5,227C 241.809,225.933 241.309,224.766 241,223.5C 240.193,227.449 239.693,227.449 239.5,223.5C 235.5,223.5 231.5,223.5 227.5,223.5C 227.159,226.516 225.993,229.182 224,231.5C 223.667,233.833 223.333,236.167 223,238.5C 222.5,262.164 222.333,285.831 222.5,309.5C 222.5,339.5 222.5,369.5 222.5,399.5C 222.5,409.833 222.5,420.167 222.5,430.5C 222.5,440.167 222.5,449.833 222.5,459.5C 222.824,466.354 222.491,473.021 221.5,479.5C 221.333,392.499 221.5,305.499 222,218.5C 237.172,209.669 252.339,201.003 267.5,192.5C 266.524,193.815 265.524,195.148 264.5,196.5C 265,197.5 265.5,198.5 266,199.5C 267.281,198.353 267.614,198.687 267,200.5C 264.63,201.726 262.464,202.56 260.5,203C 262.394,204.101 263.061,205.434 262.5,207C 260.553,206.464 258.553,206.798 256.5,208C 254.35,210.328 251.683,211.661 248.5,212C 247,212.833 245.833,214 245,215.5C 243.644,214.62 242.144,214.286 240.5,214.5C 240.421,215.93 240.754,217.264 241.5,218.5C 243.5,219.5 245.5,220.5 247.5,221.5C 249.334,220.246 251.334,219.579 253.5,219.5C 253.617,217.516 252.95,215.85 251.5,214.5C 252.833,213.167 254.167,213.167 255.5,214.5C 257.007,218.355 257.674,218.021 257.5,213.5C 259.527,213.338 261.527,213.505 263.5,214C 266.14,215.744 268.973,217.244 272,218.5C 274.12,217.541 276.287,217.374 278.5,218C 279.219,220.556 280.886,221.723 283.5,221.5C 284.733,217.254 285.899,212.254 287,206.5C 287.173,200.984 287.673,195.651 288.5,190.5 Z"/></g>
<g><path style="opacity:1" fill="#fcfafc" d="M 267.5,271.5 C 270.463,282.93 276.129,292.763 284.5,301C 309.303,316.06 334.303,330.56 359.5,344.5C 371.07,350.735 380.403,359.402 387.5,370.5C 389.303,376.047 390.637,381.714 391.5,387.5C 391.5,416.167 391.5,444.833 391.5,473.5C 385.635,471.844 379.635,471.177 373.5,471.5C 372.167,471.5 370.833,471.5 369.5,471.5C 369.667,446.831 369.5,422.164 369,397.5C 368.648,395.753 368.148,394.086 367.5,392.5C 364.913,381.736 359.247,372.903 350.5,366C 329.974,353.904 309.307,342.071 288.5,330.5C 280.231,325.358 271.897,320.192 263.5,315C 259.602,311.271 255.935,307.438 252.5,303.5C 248.841,296.522 246.174,289.189 244.5,281.5C 244.333,264.497 244.5,247.497 245,230.5C 250.142,227.68 255.308,225.013 260.5,222.5C 262.086,221.587 263.586,221.587 265,222.5C 265.81,238.032 265.643,253.532 264.5,269C 265.13,270.31 266.13,271.144 267.5,271.5 Z"/></g>
<g><path style="opacity:1" fill="#786d6d" d="M 243.5,271.5 C 242.984,264.28 242.317,258.947 241.5,255.5C 239.058,255.881 238.391,255.214 239.5,253.5C 234.88,252.507 230.214,252.173 225.5,252.5C 224.408,262.124 223.741,271.791 223.5,281.5C 223.827,291.015 223.494,300.348 222.5,309.5C 222.333,285.831 222.5,262.164 223,238.5C 223.333,236.167 223.667,233.833 224,231.5C 225.993,229.182 227.159,226.516 227.5,223.5C 231.5,223.5 235.5,223.5 239.5,223.5C 239.693,227.449 240.193,227.449 241,223.5C 241.309,224.766 241.809,225.933 242.5,227C 241.366,228.016 241.699,228.683 243.5,229C 243.465,242.958 243.465,257.124 243.5,271.5 Z"/></g>
<g><path style="opacity:1" fill="#ece5e5" d="M 267.5,268.5 C 267.5,269.5 267.5,270.5 267.5,271.5C 266.13,271.144 265.13,270.31 264.5,269C 265.643,253.532 265.81,238.032 265,222.5C 263.586,221.587 262.086,221.587 260.5,222.5C 261.911,220.461 263.911,219.461 266.5,219.5C 266.17,236.009 266.504,252.342 267.5,268.5 Z"/></g>
<g><path style="opacity:1" fill="#776c6c" d="M 293.5,282.5 C 292.232,283.787 292.565,284.787 294.5,285.5C 294.192,286.308 293.692,286.975 293,287.5C 290.816,288.108 288.816,287.441 287,285.5C 286.805,287.207 286.805,288.874 287,290.5C 285.817,291.731 284.651,291.731 283.5,290.5C 281.824,287.986 280.157,285.486 278.5,283C 279.022,282.439 279.355,281.772 279.5,281C 278.612,279.78 277.945,278.447 277.5,277C 278.476,274.882 279.31,272.715 280,270.5C 280.654,271.696 281.154,271.696 281.5,270.5C 280.758,269.713 279.925,269.047 279,268.5C 278,270.5 277,272.5 276,274.5C 275.89,272.662 275.056,270.829 273.5,269C 273.585,267.893 273.919,266.893 274.5,266C 272.568,263.463 270.901,260.796 269.5,258C 270.567,255.573 269.9,255.073 267.5,256.5C 267.334,250.491 267.501,244.491 268,238.5C 268.333,238.167 268.667,237.833 269,237.5C 269.333,240.833 269.667,244.167 270,247.5C 270.333,239.5 270.667,231.5 271,223.5C 272.131,225.797 273.964,227.131 276.5,227.5C 279.748,224.53 282.581,224.864 285,228.5C 287.052,243.039 288.052,257.706 288,272.5C 288.333,272.167 288.667,271.833 289,271.5C 290.038,275.468 291.538,279.135 293.5,282.5 Z"/></g>
<g><path style="opacity:1" fill="#fdfcfa" d="M 391.5,337.5 C 389.95,336.559 388.284,335.893 386.5,335.5C 381.147,332.067 375.647,328.733 370,325.5C 369.503,322.854 369.336,320.187 369.5,317.5C 369.5,285.833 369.5,254.167 369.5,222.5C 369.5,221.5 369.5,220.5 369.5,219.5C 376.561,222.866 383.561,226.533 390.5,230.5C 391.5,266.16 391.833,301.827 391.5,337.5 Z"/></g>
<g><path style="opacity:1" fill="#79736d" d="M 367.5,222.5 C 368.167,222.5 368.833,222.5 369.5,222.5C 369.5,254.167 369.5,285.833 369.5,317.5C 368.566,316.432 368.232,315.099 368.5,313.5C 368.333,300.156 367.833,286.823 367,273.5C 366.333,272.167 365.333,271.167 364,270.5C 360.202,270.616 356.035,270.949 351.5,271.5C 351.666,266.489 351.499,261.489 351,256.5C 349.632,257.993 349.465,259.493 350.5,261C 348.796,272.384 348.129,283.884 348.5,295.5C 348.672,296.492 348.338,297.158 347.5,297.5C 347.5,283.5 347.5,269.5 347.5,255.5C 348.991,255.099 350.658,254.932 352.5,255C 353.071,253.795 353.738,252.628 354.5,251.5C 358.375,254.22 361.709,253.554 364.5,249.5C 364.507,242.497 364.507,235.33 364.5,228C 364.859,225.704 365.859,223.871 367.5,222.5 Z"/></g>
<g><path style="opacity:1" fill="#7d7269" d="M 413.5,295.5 C 408.636,295.618 406.303,292.951 406.5,287.5C 405.127,287.657 403.793,287.49 402.5,287C 403.696,286.346 403.696,285.846 402.5,285.5C 401.833,286.167 401.167,286.833 400.5,287.5C 399.515,285.228 398.681,282.895 398,280.5C 397.667,283.5 397.333,286.5 397,289.5C 396.667,283.833 396.333,278.167 396,272.5C 395.667,275.833 395.333,279.167 395,282.5C 394.617,283.056 394.117,283.389 393.5,283.5C 393.333,265.497 393.5,247.497 394,229.5C 395.147,228.542 396.147,228.875 397,230.5C 397.179,233.553 397.679,236.553 398.5,239.5C 398.685,236.52 399.018,233.52 399.5,230.5C 403.155,229.414 406.822,229.414 410.5,230.5C 410.383,232.484 411.05,234.15 412.5,235.5C 412.069,236.293 411.735,237.127 411.5,238C 413.46,257.038 414.126,276.204 413.5,295.5 Z"/></g>
<g><path style="opacity:1" fill="#777377" d="M 197.5,232.5 C 199.487,250.47 200.154,268.803 199.5,287.5C 198.673,282.349 198.173,277.016 198,271.5C 197.829,276.533 197.329,281.533 196.5,286.5C 195.068,273.209 194.235,259.876 194,246.5C 193.749,257.528 193.082,268.528 192,279.5C 191.023,274.207 190.523,268.874 190.5,263.5C 189.5,263.5 188.5,263.5 187.5,263.5C 187.664,260.813 187.497,258.146 187,255.5C 186.667,255.833 186.333,256.167 186,256.5C 183.714,276.987 182.881,297.653 183.5,318.5C 183.5,334.833 183.5,351.167 183.5,367.5C 183.5,386.5 183.5,405.5 183.5,424.5C 183.831,446.673 183.497,468.673 182.5,490.5C 182.333,407.499 182.5,324.499 183,241.5C 183.717,240.956 184.217,240.289 184.5,239.5C 189.065,237.602 193.399,235.269 197.5,232.5 Z"/></g>
<g><path style="opacity:1" fill="#6e666e" d="M 199.5,287.5 C 199.5,303.5 199.5,319.5 199.5,335.5C 199.032,325.742 197.532,316.075 195,306.5C 194.667,306.167 194.333,305.833 194,305.5C 193.828,310.202 193.328,314.868 192.5,319.5C 191.877,317.034 191.043,314.701 190,312.5C 189.667,314.167 189.333,315.833 189,317.5C 188.759,314.711 188.092,312.044 187,309.5C 185.673,312.511 184.506,315.511 183.5,318.5C 182.881,297.653 183.714,276.987 186,256.5C 186.333,256.167 186.667,255.833 187,255.5C 187.497,258.146 187.664,260.813 187.5,263.5C 188.5,263.5 189.5,263.5 190.5,263.5C 190.523,268.874 191.023,274.207 192,279.5C 193.082,268.528 193.749,257.528 194,246.5C 194.235,259.876 195.068,273.209 196.5,286.5C 197.329,281.533 197.829,276.533 198,271.5C 198.173,277.016 198.673,282.349 199.5,287.5 Z"/></g>
<g><path style="opacity:1" fill="#7e776f" d="M 453.5,240.5 C 453.5,272.5 453.5,304.5 453.5,336.5C 452.507,327.682 452.173,318.682 452.5,309.5C 452.833,291.488 452.5,273.488 451.5,255.5C 450.914,255.709 450.414,256.043 450,256.5C 449.832,266.517 449.332,276.517 448.5,286.5C 447.914,286.291 447.414,285.957 447,285.5C 446.667,278.833 446.333,272.167 446,265.5C 444.612,264.446 443.112,264.28 441.5,265C 441.616,266.268 441.949,267.602 442.5,269C 441.69,274.751 441.19,280.584 441,286.5C 439.992,295.608 438.825,303.942 437.5,311.5C 437.167,311.5 436.833,311.5 436.5,311.5C 436.167,284.825 436.5,258.158 437.5,231.5C 441.167,234 444.833,236.5 448.5,239C 450.025,240.009 451.692,240.509 453.5,240.5 Z"/></g>
<g><path style="opacity:1" fill="#73696d" d="M 243.5,271.5 C 243.187,275.042 243.521,278.375 244.5,281.5C 246.174,289.189 248.841,296.522 252.5,303.5C 249.751,303.274 247.084,303.607 244.5,304.5C 243.205,303.902 241.872,303.402 240.5,303C 241.276,301.23 241.11,299.397 240,297.5C 239.333,299.5 238.667,301.5 238,303.5C 236.729,298.522 235.563,293.522 234.5,288.5C 232.929,289.309 231.262,289.643 229.5,289.5C 229.119,291.942 229.786,292.609 231.5,291.5C 233.339,293.527 233.839,295.86 233,298.5C 232.751,297.376 232.251,296.376 231.5,295.5C 230.833,297.167 230.167,298.833 229.5,300.5C 228.316,294.431 226.816,288.431 225,282.5C 224.617,281.944 224.117,281.611 223.5,281.5C 223.741,271.791 224.408,262.124 225.5,252.5C 230.214,252.173 234.88,252.507 239.5,253.5C 238.391,255.214 239.058,255.881 241.5,255.5C 242.317,258.947 242.984,264.28 243.5,271.5 Z"/></g>
<g><path style="opacity:1" fill="#746c6b" d="M 368.5,313.5 C 366.176,311.375 365.509,308.875 366.5,306C 365.376,305.751 364.376,305.251 363.5,304.5C 364.274,303.289 365.107,303.289 366,304.5C 366.494,302.866 366.66,301.199 366.5,299.5C 362.179,301.994 357.846,301.994 353.5,299.5C 352.353,299.818 351.519,300.484 351,301.5C 350.963,299.026 350.13,297.026 348.5,295.5C 348.129,283.884 348.796,272.384 350.5,261C 349.465,259.493 349.632,257.993 351,256.5C 351.499,261.489 351.666,266.489 351.5,271.5C 356.035,270.949 360.202,270.616 364,270.5C 365.333,271.167 366.333,272.167 367,273.5C 367.833,286.823 368.333,300.156 368.5,313.5 Z"/></g>
<g><path style="opacity:1" fill="#73696f" d="M 293.5,282.5 C 296.514,283.807 298.514,285.64 299.5,288C 302.063,289.079 304.729,289.579 307.5,289.5C 320.161,296.499 332.828,303.499 345.5,310.5C 345.56,311.043 345.893,311.376 346.5,311.5C 347.493,306.88 347.827,302.214 347.5,297.5C 348.338,297.158 348.672,296.492 348.5,295.5C 350.13,297.026 350.963,299.026 351,301.5C 351.519,300.484 352.353,299.818 353.5,299.5C 357.846,301.994 362.179,301.994 366.5,299.5C 366.66,301.199 366.494,302.866 366,304.5C 365.107,303.289 364.274,303.289 363.5,304.5C 364.376,305.251 365.376,305.751 366.5,306C 365.509,308.875 366.176,311.375 368.5,313.5C 368.232,315.099 368.566,316.432 369.5,317.5C 369.336,320.187 369.503,322.854 370,325.5C 375.647,328.733 381.147,332.067 386.5,335.5C 385.542,335.953 384.708,336.619 384,337.5C 383.241,335.365 381.741,334.032 379.5,333.5C 379.167,334.167 378.833,334.833 378.5,335.5C 376.071,335.579 373.571,335.245 371,334.5C 367.589,335.293 364.089,335.793 360.5,336C 359.572,336.388 358.905,337.055 358.5,338C 358.647,340.26 358.981,342.427 359.5,344.5C 334.303,330.56 309.303,316.06 284.5,301C 276.129,292.763 270.463,282.93 267.5,271.5C 267.5,270.5 267.5,269.5 267.5,268.5C 267.5,264.5 267.5,260.5 267.5,256.5C 269.9,255.073 270.567,255.573 269.5,258C 270.901,260.796 272.568,263.463 274.5,266C 273.919,266.893 273.585,267.893 273.5,269C 275.056,270.829 275.89,272.662 276,274.5C 277,272.5 278,270.5 279,268.5C 279.925,269.047 280.758,269.713 281.5,270.5C 281.154,271.696 280.654,271.696 280,270.5C 279.31,272.715 278.476,274.882 277.5,277C 277.945,278.447 278.612,279.78 279.5,281C 279.355,281.772 279.022,282.439 278.5,283C 280.157,285.486 281.824,287.986 283.5,290.5C 284.651,291.731 285.817,291.731 287,290.5C 286.805,288.874 286.805,287.207 287,285.5C 288.816,287.441 290.816,288.108 293,287.5C 293.692,286.975 294.192,286.308 294.5,285.5C 292.565,284.787 292.232,283.787 293.5,282.5 Z"/></g>
<g><path style="opacity:1" fill="#6e656e" d="M 223.5,281.5 C 224.117,281.611 224.617,281.944 225,282.5C 226.816,288.431 228.316,294.431 229.5,300.5C 230.167,298.833 230.833,297.167 231.5,295.5C 232.251,296.376 232.751,297.376 233,298.5C 233.839,295.86 233.339,293.527 231.5,291.5C 229.786,292.609 229.119,291.942 229.5,289.5C 231.262,289.643 232.929,289.309 234.5,288.5C 235.563,293.522 236.729,298.522 238,303.5C 238.667,301.5 239.333,299.5 240,297.5C 241.11,299.397 241.276,301.23 240.5,303C 241.872,303.402 243.205,303.902 244.5,304.5C 247.084,303.607 249.751,303.274 252.5,303.5C 255.935,307.438 259.602,311.271 263.5,315C 271.897,320.192 280.231,325.358 288.5,330.5C 286.738,330.357 285.071,330.691 283.5,331.5C 281.827,329.914 279.827,329.247 277.5,329.5C 277.095,325.03 274.595,322.697 270,322.5C 265.396,323.077 260.562,323.244 255.5,323C 251.012,317.901 247.845,318.401 246,324.5C 245.667,323.167 245.333,321.833 245,320.5C 243.896,320.051 242.229,320.051 240,320.5C 239.553,314.011 238.553,314.011 237,320.5C 233.147,318.987 229.314,318.654 225.5,319.5C 225.64,321.124 224.973,322.29 223.5,323C 226.763,323.869 227.096,325.203 224.5,327C 225.749,329.21 225.582,331.376 224,333.5C 223.5,350.163 223.333,366.83 223.5,383.5C 223.821,389.026 223.488,394.36 222.5,399.5C 222.5,369.5 222.5,339.5 222.5,309.5C 223.494,300.348 223.827,291.015 223.5,281.5 Z"/></g>
<g><path style="opacity:1" fill="#dad5d1" d="M 349.5,181.5 C 347.51,205.811 346.843,230.477 347.5,255.5C 347.5,269.5 347.5,283.5 347.5,297.5C 347.827,302.214 347.493,306.88 346.5,311.5C 345.893,311.376 345.56,311.043 345.5,310.5C 346.499,267.337 346.832,224.003 346.5,180.5C 347.791,180.263 348.791,180.596 349.5,181.5 Z"/></g>
<g><path style="opacity:1" fill="#776f6b" d="M 452.5,309.5 C 451.343,301.599 449.843,301.599 448,309.5C 447.346,308.304 446.846,308.304 446.5,309.5C 447.638,313.904 446.138,317.237 442,319.5C 440.208,317.014 438.708,314.348 437.5,311.5C 438.825,303.942 439.992,295.608 441,286.5C 441.19,280.584 441.69,274.751 442.5,269C 441.949,267.602 441.616,266.268 441.5,265C 443.112,264.28 444.612,264.446 446,265.5C 446.333,272.167 446.667,278.833 447,285.5C 447.414,285.957 447.914,286.291 448.5,286.5C 449.332,276.517 449.832,266.517 450,256.5C 450.414,256.043 450.914,255.709 451.5,255.5C 452.5,273.488 452.833,291.488 452.5,309.5 Z"/></g>
<g><path style="opacity:1" fill="#766b6c" d="M 413.5,295.5 C 413.5,311.167 413.5,326.833 413.5,342.5C 412.85,342.196 412.183,341.863 411.5,341.5C 410.668,330.181 410.168,318.848 410,307.5C 409.667,310.833 409.333,314.167 409,317.5C 408.818,314.774 408.318,312.107 407.5,309.5C 405.737,312.233 404.404,315.233 403.5,318.5C 401.94,318.481 400.44,318.148 399,317.5C 398.055,317.905 397.388,318.572 397,319.5C 395.539,317.018 394.039,317.018 392.5,319.5C 392.251,307.469 392.584,295.469 393.5,283.5C 394.117,283.389 394.617,283.056 395,282.5C 395.333,279.167 395.667,275.833 396,272.5C 396.333,278.167 396.667,283.833 397,289.5C 397.333,286.5 397.667,283.5 398,280.5C 398.681,282.895 399.515,285.228 400.5,287.5C 401.167,286.833 401.833,286.167 402.5,285.5C 403.696,285.846 403.696,286.346 402.5,287C 403.793,287.49 405.127,287.657 406.5,287.5C 406.303,292.951 408.636,295.618 413.5,295.5 Z"/></g>
<g><path style="opacity:1" fill="#736b71" d="M 452.5,309.5 C 452.173,318.682 452.507,327.682 453.5,336.5C 453.5,387.833 453.5,439.167 453.5,490.5C 452.503,473.675 452.17,456.675 452.5,439.5C 452.833,418.156 452.5,396.823 451.5,375.5C 450.719,376.737 449.719,377.737 448.5,378.5C 447.511,374.893 447.177,371.226 447.5,367.5C 445.5,367.5 443.5,367.5 441.5,367.5C 440.628,371.454 439.962,375.454 439.5,379.5C 439.913,382.232 440.58,384.899 441.5,387.5C 441.693,389.688 440.859,391.355 439,392.5C 438.04,405.313 437.207,417.979 436.5,430.5C 436.5,390.833 436.5,351.167 436.5,311.5C 436.833,311.5 437.167,311.5 437.5,311.5C 438.708,314.348 440.208,317.014 442,319.5C 446.138,317.237 447.638,313.904 446.5,309.5C 446.846,308.304 447.346,308.304 448,309.5C 449.843,301.599 451.343,301.599 452.5,309.5 Z"/></g>
<g><path style="opacity:1" fill="#fdfdfc" d="M 253.5,335.5 C 256.511,336.669 259.178,338.336 261.5,340.5C 262.105,342.026 263.271,343.026 265,343.5C 265.5,386.165 265.667,428.832 265.5,471.5C 263.708,471.366 262.042,471.699 260.5,472.5C 256.481,472.646 252.481,472.979 248.5,473.5C 247.5,473.5 246.5,473.5 245.5,473.5C 246.63,429.747 246.797,386.414 246,343.5C 246.333,341.167 246.667,338.833 247,336.5C 248.808,334.442 250.975,334.108 253.5,335.5 Z"/></g>
<g><path style="opacity:1" fill="#70666d" d="M 413.5,342.5 C 413.5,364.167 413.5,385.833 413.5,407.5C 412.669,394.006 412.169,380.339 412,366.5C 411.748,364.622 411.081,362.622 410,360.5C 409.667,360.833 409.333,361.167 409,361.5C 405.938,359.619 403.105,359.286 400.5,360.5C 399.686,362.766 399.186,365.1 399,367.5C 396.995,369.8 394.828,369.8 392.5,367.5C 391.833,365.167 391.167,362.833 390.5,360.5C 389.158,361.902 388.324,361.569 388,359.5C 387.056,360.263 386.556,361.263 386.5,362.5C 387.269,365.115 387.603,367.781 387.5,370.5C 380.403,359.402 371.07,350.735 359.5,344.5C 358.981,342.427 358.647,340.26 358.5,338C 358.905,337.055 359.572,336.388 360.5,336C 364.089,335.793 367.589,335.293 371,334.5C 373.571,335.245 376.071,335.579 378.5,335.5C 378.833,334.833 379.167,334.167 379.5,333.5C 381.741,334.032 383.241,335.365 384,337.5C 384.708,336.619 385.542,335.953 386.5,335.5C 388.284,335.893 389.95,336.559 391.5,337.5C 392.49,331.69 392.823,325.69 392.5,319.5C 394.039,317.018 395.539,317.018 397,319.5C 397.388,318.572 398.055,317.905 399,317.5C 400.44,318.148 401.94,318.481 403.5,318.5C 404.404,315.233 405.737,312.233 407.5,309.5C 408.318,312.107 408.818,314.774 409,317.5C 409.333,314.167 409.667,310.833 410,307.5C 410.168,318.848 410.668,330.181 411.5,341.5C 412.183,341.863 412.85,342.196 413.5,342.5 Z"/></g>
<g><path style="opacity:1" fill="#665d6e" d="M 199.5,335.5 C 199.5,372.833 199.5,410.167 199.5,447.5C 198.82,431.294 198.153,414.961 197.5,398.5C 198.107,396.225 198.441,393.891 198.5,391.5C 197.703,383.163 196.87,374.83 196,366.5C 195.904,363.549 195.071,360.882 193.5,358.5C 196.841,352.156 194.841,349.823 187.5,351.5C 187.752,348.68 187.252,346.014 186,343.5C 185.163,351.651 184.33,359.651 183.5,367.5C 183.5,351.167 183.5,334.833 183.5,318.5C 184.506,315.511 185.673,312.511 187,309.5C 188.092,312.044 188.759,314.711 189,317.5C 189.333,315.833 189.667,314.167 190,312.5C 191.043,314.701 191.877,317.034 192.5,319.5C 193.328,314.868 193.828,310.202 194,305.5C 194.333,305.833 194.667,306.167 195,306.5C 197.532,316.075 199.032,325.742 199.5,335.5 Z"/></g>
<g><path style="opacity:1" fill="#665e70" d="M 299.5,361.5 C 296.043,359.378 292.377,357.711 288.5,356.5C 288.5,387.833 288.5,419.167 288.5,450.5C 288.144,430.175 287.144,409.842 285.5,389.5C 285.946,387.632 286.279,385.799 286.5,384C 284.746,379.13 283.913,373.963 284,368.5C 280.606,367.544 277.106,367.211 273.5,367.5C 273.308,362.73 272.475,358.064 271,353.5C 269.245,359.458 269.079,365.458 270.5,371.5C 269.819,389.005 268.819,406.338 267.5,423.5C 267.5,399.833 267.5,376.167 267.5,352.5C 273.035,351.904 278.535,351.237 284,350.5C 286.149,351.154 288.482,352.154 291,353.5C 292.365,353.156 293.532,352.489 294.5,351.5C 302.068,352.286 310.068,352.62 318.5,352.5C 316.302,355.094 315.302,358.094 315.5,361.5C 316.5,361.5 317.5,361.5 318.5,361.5C 318.318,363.591 318.652,365.591 319.5,367.5C 319.167,368.5 318.5,369.167 317.5,369.5C 314.737,367.715 312.07,365.881 309.5,364C 309.759,362.739 310.426,361.739 311.5,361C 307.253,360.701 303.253,360.867 299.5,361.5 Z"/></g>
<g><path style="opacity:1" fill="#6b6270" d="M 288.5,330.5 C 309.307,342.071 329.974,353.904 350.5,366C 359.247,372.903 364.913,381.736 367.5,392.5C 365.955,391.77 365.122,390.437 365,388.5C 364.667,389.167 364.333,389.833 364,390.5C 363.51,389.207 363.343,387.873 363.5,386.5C 361.331,385.219 358.997,384.219 356.5,383.5C 355.006,383.709 353.839,384.376 353,385.5C 352.626,384.584 352.126,383.75 351.5,383C 353.833,381.757 354.5,380.091 353.5,378C 349.075,378.392 345.575,376.892 343,373.5C 340.973,373.986 338.807,373.986 336.5,373.5C 336.687,375.564 337.187,377.564 338,379.5C 338.333,379.167 338.667,378.833 339,378.5C 339.374,379.416 339.874,380.25 340.5,381C 340.034,382.299 340.034,383.799 340.5,385.5C 342.124,385.64 343.29,384.973 344,383.5C 345.138,389.913 347.638,395.746 351.5,401C 349.722,403.135 349.055,405.635 349.5,408.5C 348.833,416.5 348.167,424.5 347.5,432.5C 347.667,421.828 347.5,411.161 347,400.5C 345.333,396.5 343.667,392.5 342,388.5C 337.786,384.618 333.286,381.118 328.5,378C 318.771,372.473 309.104,366.973 299.5,361.5C 303.253,360.867 307.253,360.701 311.5,361C 310.426,361.739 309.759,362.739 309.5,364C 312.07,365.881 314.737,367.715 317.5,369.5C 318.5,369.167 319.167,368.5 319.5,367.5C 318.652,365.591 318.318,363.591 318.5,361.5C 317.5,361.5 316.5,361.5 315.5,361.5C 315.302,358.094 316.302,355.094 318.5,352.5C 310.068,352.62 302.068,352.286 294.5,351.5C 293.532,352.489 292.365,353.156 291,353.5C 288.482,352.154 286.149,351.154 284,350.5C 278.535,351.237 273.035,351.904 267.5,352.5C 268.08,348.351 267.414,344.684 265.5,341.5C 264.167,341.167 262.833,340.833 261.5,340.5C 259.178,338.336 256.511,336.669 253.5,335.5C 251.365,333.929 249.032,332.596 246.5,331.5C 246.179,329.952 245.179,329.285 243.5,329.5C 243.5,331.5 243.5,333.5 243.5,335.5C 242.778,335.082 242.278,334.416 242,333.5C 239.368,335.454 236.701,337.454 234,339.5C 232.441,338.971 230.941,338.304 229.5,337.5C 228.914,337.709 228.414,338.043 228,338.5C 228.11,343.176 227.11,347.509 225,351.5C 224.83,362.341 224.33,373.008 223.5,383.5C 223.333,366.83 223.5,350.163 224,333.5C 225.582,331.376 225.749,329.21 224.5,327C 227.096,325.203 226.763,323.869 223.5,323C 224.973,322.29 225.64,321.124 225.5,319.5C 229.314,318.654 233.147,318.987 237,320.5C 238.553,314.011 239.553,314.011 240,320.5C 242.229,320.051 243.896,320.051 245,320.5C 245.333,321.833 245.667,323.167 246,324.5C 247.845,318.401 251.012,317.901 255.5,323C 260.562,323.244 265.396,323.077 270,322.5C 274.595,322.697 277.095,325.03 277.5,329.5C 279.827,329.247 281.827,329.914 283.5,331.5C 285.071,330.691 286.738,330.357 288.5,330.5 Z"/></g>
<g><path style="opacity:1" fill="#635b71" d="M 243.5,335.5 C 243.168,382.003 243.501,428.336 244.5,474.5C 246.099,474.768 247.432,474.434 248.5,473.5C 252.481,472.979 256.481,472.646 260.5,472.5C 259.942,473.79 258.942,474.623 257.5,475C 252.649,475.174 247.982,475.674 243.5,476.5C 242.662,476.158 242.328,475.492 242.5,474.5C 242.828,462.322 242.495,450.322 241.5,438.5C 239.907,425.922 239.073,413.256 239,400.5C 238.667,400.167 238.333,399.833 238,399.5C 237.466,402.262 235.632,402.928 232.5,401.5C 229.664,401.706 226.998,402.373 224.5,403.5C 223.915,412.644 223.248,421.644 222.5,430.5C 222.5,420.167 222.5,409.833 222.5,399.5C 223.488,394.36 223.821,389.026 223.5,383.5C 224.33,373.008 224.83,362.341 225,351.5C 227.11,347.509 228.11,343.176 228,338.5C 228.414,338.043 228.914,337.709 229.5,337.5C 230.941,338.304 232.441,338.971 234,339.5C 236.701,337.454 239.368,335.454 242,333.5C 242.278,334.416 242.778,335.082 243.5,335.5 Z"/></g>
<g><path style="opacity:1" fill="#f5f3f9" d="M 246.5,331.5 C 249.032,332.596 251.365,333.929 253.5,335.5C 250.975,334.108 248.808,334.442 247,336.5C 246.667,338.833 246.333,341.167 246,343.5C 246.797,386.414 246.63,429.747 245.5,473.5C 246.5,473.5 247.5,473.5 248.5,473.5C 247.432,474.434 246.099,474.768 244.5,474.5C 243.838,426.488 244.505,378.822 246.5,331.5 Z"/></g>
<g><path style="opacity:1" fill="#e6e5e7" d="M 184.5,239.5 C 184.217,240.289 183.717,240.956 183,241.5C 182.5,324.499 182.333,407.499 182.5,490.5C 182.158,491.338 181.492,491.672 180.5,491.5C 181.331,407.903 181.831,324.237 182,240.5C 182.671,239.748 183.504,239.414 184.5,239.5 Z"/></g>
<g><path style="opacity:1" fill="#a3a0ac" d="M 246.5,331.5 C 244.505,378.822 243.838,426.488 244.5,474.5C 243.501,428.336 243.168,382.003 243.5,335.5C 243.5,333.5 243.5,331.5 243.5,329.5C 245.179,329.285 246.179,329.952 246.5,331.5 Z"/></g>
<g><path style="opacity:1" fill="#fafcfb" d="M 299.5,361.5 C 309.104,366.973 318.771,372.473 328.5,378C 333.286,381.118 337.786,384.618 342,388.5C 343.667,392.5 345.333,396.5 347,400.5C 347.5,411.161 347.667,421.828 347.5,432.5C 347.5,444.5 347.5,456.5 347.5,468.5C 327.833,468.5 308.167,468.5 288.5,468.5C 288.5,462.5 288.5,456.5 288.5,450.5C 288.5,419.167 288.5,387.833 288.5,356.5C 292.377,357.711 296.043,359.378 299.5,361.5 Z"/></g>
<g><path style="opacity:1" fill="#5f5870" d="M 199.5,447.5 C 199.5,458.5 199.5,469.5 199.5,480.5C 197.918,458.689 197.085,436.689 197,414.5C 196.204,409.948 195.371,405.448 194.5,401C 195.167,400.667 195.833,400.333 196.5,400C 195.167,394.667 195.167,389.333 196.5,384C 195.251,382.176 194.085,382.343 193,384.5C 191.97,388.773 191.303,393.106 191,397.5C 189.26,396.284 188.26,394.618 188,392.5C 187.259,393.641 186.425,393.641 185.5,392.5C 185.428,403.051 184.761,413.718 183.5,424.5C 183.5,405.5 183.5,386.5 183.5,367.5C 184.33,359.651 185.163,351.651 186,343.5C 187.252,346.014 187.752,348.68 187.5,351.5C 194.841,349.823 196.841,352.156 193.5,358.5C 195.071,360.882 195.904,363.549 196,366.5C 196.87,374.83 197.703,383.163 198.5,391.5C 198.441,393.891 198.107,396.225 197.5,398.5C 198.153,414.961 198.82,431.294 199.5,447.5 Z"/></g>
<g><path style="opacity:1" fill="#6b606f" d="M 413.5,407.5 C 413.5,431.5 413.5,455.5 413.5,479.5C 411.985,472.241 410.985,464.907 410.5,457.5C 411.731,443.346 411.731,429.346 410.5,415.5C 410.579,412.729 410.079,410.063 409,407.5C 405.953,406.875 402.786,406.709 399.5,407C 398.751,405.266 398.251,403.433 398,401.5C 397.667,405.833 397.333,410.167 397,414.5C 396.827,409.416 396.161,404.416 395,399.5C 394.667,400.167 394.333,400.833 394,401.5C 393.722,400.584 393.222,399.918 392.5,399.5C 392.817,395.298 392.483,391.298 391.5,387.5C 390.637,381.714 389.303,376.047 387.5,370.5C 387.603,367.781 387.269,365.115 386.5,362.5C 386.556,361.263 387.056,360.263 388,359.5C 388.324,361.569 389.158,361.902 390.5,360.5C 391.167,362.833 391.833,365.167 392.5,367.5C 394.828,369.8 396.995,369.8 399,367.5C 399.186,365.1 399.686,362.766 400.5,360.5C 403.105,359.286 405.938,359.619 409,361.5C 409.333,361.167 409.667,360.833 410,360.5C 411.081,362.622 411.748,364.622 412,366.5C 412.169,380.339 412.669,394.006 413.5,407.5 Z"/></g>
<g><path style="opacity:1" fill="#675e71" d="M 367.5,392.5 C 368.148,394.086 368.648,395.753 369,397.5C 369.5,422.164 369.667,446.831 369.5,471.5C 368.669,455.672 368.169,439.672 368,423.5C 367.654,419.652 366.154,416.319 363.5,413.5C 365.76,411.255 367.094,408.589 367.5,405.5C 365.169,405.502 363.169,404.669 361.5,403C 362.167,402.333 362.833,401.667 363.5,401C 355.726,400.462 351.226,404.295 350,412.5C 349.51,411.207 349.343,409.873 349.5,408.5C 349.055,405.635 349.722,403.135 351.5,401C 347.638,395.746 345.138,389.913 344,383.5C 343.29,384.973 342.124,385.64 340.5,385.5C 340.034,383.799 340.034,382.299 340.5,381C 339.874,380.25 339.374,379.416 339,378.5C 338.667,378.833 338.333,379.167 338,379.5C 337.187,377.564 336.687,375.564 336.5,373.5C 338.807,373.986 340.973,373.986 343,373.5C 345.575,376.892 349.075,378.392 353.5,378C 354.5,380.091 353.833,381.757 351.5,383C 352.126,383.75 352.626,384.584 353,385.5C 353.839,384.376 355.006,383.709 356.5,383.5C 358.997,384.219 361.331,385.219 363.5,386.5C 363.343,387.873 363.51,389.207 364,390.5C 364.333,389.833 364.667,389.167 365,388.5C 365.122,390.437 365.955,391.77 367.5,392.5 Z"/></g>
<g><path style="opacity:1" fill="#787482" d="M 265.5,341.5 C 267.414,344.684 268.08,348.351 267.5,352.5C 267.5,376.167 267.5,399.833 267.5,423.5C 267.5,439.167 267.5,454.833 267.5,470.5C 267.5,471.167 267.167,471.5 266.5,471.5C 266.828,428.094 266.494,384.761 265.5,341.5 Z"/></g>
<g><path style="opacity:1" fill="#dfdce3" d="M 197.5,232.5 C 198.209,231.596 199.209,231.263 200.5,231.5C 200.5,315.5 200.5,399.5 200.5,483.5C 201.5,483.5 202.5,483.5 203.5,483.5C 202.432,484.434 201.099,484.768 199.5,484.5C 199.5,483.167 199.5,481.833 199.5,480.5C 199.5,469.5 199.5,458.5 199.5,447.5C 199.5,410.167 199.5,372.833 199.5,335.5C 199.5,319.5 199.5,303.5 199.5,287.5C 200.154,268.803 199.487,250.47 197.5,232.5 Z"/></g>
<g><path style="opacity:1" fill="#625b71" d="M 288.5,450.5 C 288.5,456.5 288.5,462.5 288.5,468.5C 308.167,468.5 327.833,468.5 347.5,468.5C 344.038,469.482 340.371,469.815 336.5,469.5C 325.321,469.172 314.321,469.505 303.5,470.5C 298.143,471.554 292.81,471.554 287.5,470.5C 287.721,467.721 287.388,465.054 286.5,462.5C 286.666,452.161 286.5,441.828 286,431.5C 285.056,430.737 284.556,429.737 284.5,428.5C 285.4,426.761 286.067,424.928 286.5,423C 285.246,420.157 285.246,417.324 286.5,414.5C 284.798,406.959 281.464,405.959 276.5,411.5C 274.808,409.641 273.308,407.641 272,405.5C 270.234,410.1 270.067,414.767 271.5,419.5C 270.102,421.13 269.102,422.964 268.5,425C 269.168,432.591 269.501,440.425 269.5,448.5C 268.833,455.833 268.167,463.167 267.5,470.5C 267.5,454.833 267.5,439.167 267.5,423.5C 268.819,406.338 269.819,389.005 270.5,371.5C 269.079,365.458 269.245,359.458 271,353.5C 272.475,358.064 273.308,362.73 273.5,367.5C 277.106,367.211 280.606,367.544 284,368.5C 283.913,373.963 284.746,379.13 286.5,384C 286.279,385.799 285.946,387.632 285.5,389.5C 287.144,409.842 288.144,430.175 288.5,450.5 Z"/></g>
<g><path style="opacity:1" fill="#676171" d="M 452.5,439.5 C 451.671,432.011 451.171,424.344 451,416.5C 450.333,415.833 449.667,415.167 449,414.5C 447.883,415.949 447.216,417.616 447,419.5C 446.405,415.918 445.071,415.584 443,418.5C 442.558,416.321 441.558,415.655 440,416.5C 439.946,421.679 439.279,426.679 438,431.5C 437.172,447.672 437.339,463.672 438.5,479.5C 439.043,479.56 439.376,479.893 439.5,480.5C 439.043,482.598 438.043,484.264 436.5,485.5C 436.5,467.167 436.5,448.833 436.5,430.5C 437.207,417.979 438.04,405.313 439,392.5C 440.859,391.355 441.693,389.688 441.5,387.5C 440.58,384.899 439.913,382.232 439.5,379.5C 439.962,375.454 440.628,371.454 441.5,367.5C 443.5,367.5 445.5,367.5 447.5,367.5C 447.177,371.226 447.511,374.893 448.5,378.5C 449.719,377.737 450.719,376.737 451.5,375.5C 452.5,396.823 452.833,418.156 452.5,439.5 Z"/></g>
<g><path style="opacity:1" fill="#e3dfe9" d="M 261.5,340.5 C 262.833,340.833 264.167,341.167 265.5,341.5C 266.494,384.761 266.828,428.094 266.5,471.5C 266.167,471.5 265.833,471.5 265.5,471.5C 265.667,428.832 265.5,386.165 265,343.5C 263.271,343.026 262.105,342.026 261.5,340.5 Z"/></g>
<g><path style="opacity:1" fill="#5b5575" d="M 241.5,438.5 C 239.915,437.526 238.915,436.026 238.5,434C 239.451,433.282 239.617,432.449 239,431.5C 237.882,433.758 236.382,435.758 234.5,437.5C 232.423,436.012 231.423,434.012 231.5,431.5C 230.167,431.5 228.833,431.5 227.5,431.5C 227.896,434.482 227.229,437.149 225.5,439.5C 226.946,441.618 227.613,443.951 227.5,446.5C 226.022,446.238 224.689,446.571 223.5,447.5C 223.709,448.086 224.043,448.586 224.5,449C 223.865,452.603 223.198,456.103 222.5,459.5C 222.5,449.833 222.5,440.167 222.5,430.5C 223.248,421.644 223.915,412.644 224.5,403.5C 226.998,402.373 229.664,401.706 232.5,401.5C 235.632,402.928 237.466,402.262 238,399.5C 238.333,399.833 238.667,400.167 239,400.5C 239.073,413.256 239.907,425.922 241.5,438.5 Z"/></g>
<g><path style="opacity:1" fill="#d4ced3" d="M 453.5,240.5 C 454.169,324.069 454.836,407.736 455.5,491.5C 454.508,491.672 453.842,491.338 453.5,490.5C 453.5,439.167 453.5,387.833 453.5,336.5C 453.5,304.5 453.5,272.5 453.5,240.5 Z"/></g>
<g><path style="opacity:1" fill="#5f5970" d="M 369.5,471.5 C 370.833,471.5 372.167,471.5 373.5,471.5C 373.5,471.833 373.5,472.167 373.5,472.5C 371.473,472.662 369.473,472.495 367.5,472C 366.495,470.493 365.162,469.327 363.5,468.5C 364.522,467.646 365.355,466.646 366,465.5C 366.288,458.924 366.454,452.424 366.5,446C 364.429,442.929 362.096,442.762 359.5,445.5C 352.83,443.745 349.663,439.412 350,432.5C 349.79,443.527 349.29,454.527 348.5,465.5C 349.073,467.354 349.407,469.187 349.5,471C 344.892,472.643 340.559,472.143 336.5,469.5C 340.371,469.815 344.038,469.482 347.5,468.5C 347.5,456.5 347.5,444.5 347.5,432.5C 348.167,424.5 348.833,416.5 349.5,408.5C 349.343,409.873 349.51,411.207 350,412.5C 351.226,404.295 355.726,400.462 363.5,401C 362.833,401.667 362.167,402.333 361.5,403C 363.169,404.669 365.169,405.502 367.5,405.5C 367.094,408.589 365.76,411.255 363.5,413.5C 366.154,416.319 367.654,419.652 368,423.5C 368.169,439.672 368.669,455.672 369.5,471.5 Z"/></g>
<g><path style="opacity:1" fill="#5b5474" d="M 286.5,462.5 C 285.133,463.853 284.133,463.519 283.5,461.5C 284.454,457.18 284.287,452.847 283,448.5C 281.989,447.663 280.822,447.33 279.5,447.5C 279.577,450.012 278.577,452.012 276.5,453.5C 275.752,451.668 274.752,450.001 273.5,448.5C 272.192,447.374 270.858,447.374 269.5,448.5C 269.501,440.425 269.168,432.591 268.5,425C 269.102,422.964 270.102,421.13 271.5,419.5C 270.067,414.767 270.234,410.1 272,405.5C 273.308,407.641 274.808,409.641 276.5,411.5C 281.464,405.959 284.798,406.959 286.5,414.5C 285.246,417.324 285.246,420.157 286.5,423C 286.067,424.928 285.4,426.761 284.5,428.5C 284.556,429.737 285.056,430.737 286,431.5C 286.5,441.828 286.666,452.161 286.5,462.5 Z"/></g>
<g><path style="opacity:1" fill="#625a73" d="M 392.5,399.5 C 393.222,399.918 393.722,400.584 394,401.5C 394.333,400.833 394.667,400.167 395,399.5C 396.161,404.416 396.827,409.416 397,414.5C 397.333,410.167 397.667,405.833 398,401.5C 398.251,403.433 398.751,405.266 399.5,407C 402.786,406.709 405.953,406.875 409,407.5C 410.079,410.063 410.579,412.729 410.5,415.5C 407.267,414.368 405.601,415.701 405.5,419.5C 406.878,423.015 407.545,426.682 407.5,430.5C 406.955,433.769 406.955,436.935 407.5,440C 406.704,441.092 406.037,442.259 405.5,443.5C 407.079,443.828 407.746,445.328 407.5,448C 407.199,452.447 406.699,452.281 406,447.5C 405.503,449.81 405.337,452.143 405.5,454.5C 404.178,454.33 403.011,454.663 402,455.5C 401.781,454.062 401.281,452.729 400.5,451.5C 399.692,453.423 399.192,455.423 399,457.5C 398.502,454.183 398.335,450.85 398.5,447.5C 400.167,447.5 401.833,447.5 403.5,447.5C 403.994,443.473 402.494,440.473 399,438.5C 398.617,439.056 398.117,439.389 397.5,439.5C 397.107,431.482 396.44,423.482 395.5,415.5C 394.473,414.209 393.473,414.209 392.5,415.5C 392.5,410.167 392.5,404.833 392.5,399.5 Z"/></g>
<g><path style="opacity:1" fill="#9996a2" d="M 391.5,387.5 C 392.483,391.298 392.817,395.298 392.5,399.5C 392.5,404.833 392.5,410.167 392.5,415.5C 392.5,435.167 392.5,454.833 392.5,474.5C 391.5,475.833 390.5,475.833 389.5,474.5C 390.492,474.672 391.158,474.338 391.5,473.5C 391.5,444.833 391.5,416.167 391.5,387.5 Z"/></g>
<g><path style="opacity:1" fill="#5e5b6f" d="M 397.5,439.5 C 397.666,447.84 397.5,456.173 397,464.5C 395.195,467.77 393.695,471.103 392.5,474.5C 392.5,454.833 392.5,435.167 392.5,415.5C 393.473,414.209 394.473,414.209 395.5,415.5C 396.44,423.482 397.107,431.482 397.5,439.5 Z"/></g>
<g><path style="opacity:1" fill="#544e77" d="M 242.5,474.5 C 242.328,475.492 242.662,476.158 243.5,476.5C 248.017,477.166 252.683,477.833 257.5,478.5C 257.291,479.086 256.957,479.586 256.5,480C 250.393,480.769 244.393,481.935 238.5,483.5C 234.75,481.711 232.083,482.711 230.5,486.5C 227.904,487.265 225.237,487.599 222.5,487.5C 220.5,487.5 218.5,487.5 216.5,487.5C 220.652,486.448 224.985,485.614 229.5,485C 229.665,483.883 229.998,482.716 230.5,481.5C 230,481.167 229.5,480.833 229,480.5C 224.955,483.348 220.455,484.682 215.5,484.5C 219.007,483.029 222.674,481.696 226.5,480.5C 227.5,479.167 228.5,477.833 229.5,476.5C 228.349,475.269 227.183,475.269 226,476.5C 223.198,471.051 222.698,465.384 224.5,459.5C 230.776,462.963 235.11,461.296 237.5,454.5C 237.21,452.956 236.544,451.623 235.5,450.5C 232.5,449.833 229.5,449.167 226.5,448.5C 230.133,447.928 234.133,447.261 238.5,446.5C 239.298,444.922 239.798,443.256 240,441.5C 241.483,450.787 241.816,460.121 241,469.5C 239.035,471.751 239.535,473.418 242.5,474.5 Z"/></g>
<g><path style="opacity:1" fill="#605a70" d="M 452.5,439.5 C 452.17,456.675 452.503,473.675 453.5,490.5C 453.842,491.338 454.508,491.672 455.5,491.5C 468.392,496.243 481.058,501.577 493.5,507.5C 490.713,508.477 487.713,508.81 484.5,508.5C 473.805,505.147 463.139,501.813 452.5,498.5C 450.485,497.076 448.152,496.41 445.5,496.5C 440.928,495.612 436.595,494.279 432.5,492.5C 434.467,492.739 436.301,492.406 438,491.5C 438.689,492.357 439.522,493.023 440.5,493.5C 441.768,492.572 443.101,492.405 444.5,493C 442.699,493.317 442.366,493.984 443.5,495C 449.149,496.494 451.482,494.327 450.5,488.5C 449.347,482.89 448.681,477.223 448.5,471.5C 446.179,471.229 444.179,471.896 442.5,473.5C 441.029,472.619 440.196,471.286 440,469.5C 438.684,472.688 438.184,476.022 438.5,479.5C 437.339,463.672 437.172,447.672 438,431.5C 439.279,426.679 439.946,421.679 440,416.5C 441.558,415.655 442.558,416.321 443,418.5C 445.071,415.584 446.405,415.918 447,419.5C 447.216,417.616 447.883,415.949 449,414.5C 449.667,415.167 450.333,415.833 451,416.5C 451.171,424.344 451.671,432.011 452.5,439.5 Z"/></g>
<g><path style="opacity:1" fill="#5b5573" d="M 410.5,415.5 C 411.731,429.346 411.731,443.346 410.5,457.5C 408.764,462.604 407.764,468.104 407.5,474C 409.118,478.823 412.452,481.823 417.5,483C 421.848,483.573 426.181,484.24 430.5,485C 432.107,486.049 432.773,487.549 432.5,489.5C 426.971,488.744 421.471,487.744 416,486.5C 411.566,486.975 407.066,486.975 402.5,486.5C 402.167,486.5 401.833,486.5 401.5,486.5C 401.082,485.778 400.416,485.278 399.5,485C 396.183,484.502 392.85,484.335 389.5,484.5C 379.566,482.844 369.566,481.844 359.5,481.5C 352.397,479.895 345.063,479.228 337.5,479.5C 318.81,478.124 300.143,478.458 281.5,480.5C 273.141,480.873 264.808,481.54 256.5,482.5C 248.806,483.005 241.14,483.838 233.5,485C 232.944,485.383 232.611,485.883 232.5,486.5C 231.833,486.5 231.167,486.5 230.5,486.5C 232.083,482.711 234.75,481.711 238.5,483.5C 244.393,481.935 250.393,480.769 256.5,480C 256.957,479.586 257.291,479.086 257.5,478.5C 252.683,477.833 248.017,477.166 243.5,476.5C 247.982,475.674 252.649,475.174 257.5,475C 258.942,474.623 259.942,473.79 260.5,472.5C 262.042,471.699 263.708,471.366 265.5,471.5C 263.389,472.736 261.389,474.236 259.5,476C 260.687,477.604 262.687,478.771 265.5,479.5C 267.274,479.113 268.941,478.447 270.5,477.5C 272.192,478.969 274.192,479.635 276.5,479.5C 282.874,478.105 289.207,477.771 295.5,478.5C 295.5,477.5 295.5,476.5 295.5,475.5C 298.602,475.154 301.435,475.821 304,477.5C 314.406,477.484 324.906,477.318 335.5,477C 337.425,475.405 339.425,475.238 341.5,476.5C 342.386,475.675 342.719,474.675 342.5,473.5C 329.572,471.641 316.572,470.641 303.5,470.5C 314.321,469.505 325.321,469.172 336.5,469.5C 340.559,472.143 344.892,472.643 349.5,471C 349.407,469.187 349.073,467.354 348.5,465.5C 349.29,454.527 349.79,443.527 350,432.5C 349.663,439.412 352.83,443.745 359.5,445.5C 362.096,442.762 364.429,442.929 366.5,446C 366.454,452.424 366.288,458.924 366,465.5C 365.355,466.646 364.522,467.646 363.5,468.5C 365.162,469.327 366.495,470.493 367.5,472C 369.473,472.495 371.473,472.662 373.5,472.5C 378.863,472.949 384.196,473.616 389.5,474.5C 390.5,475.833 391.5,475.833 392.5,474.5C 393.695,471.103 395.195,467.77 397,464.5C 397.5,456.173 397.666,447.84 397.5,439.5C 398.117,439.389 398.617,439.056 399,438.5C 402.494,440.473 403.994,443.473 403.5,447.5C 401.833,447.5 400.167,447.5 398.5,447.5C 398.335,450.85 398.502,454.183 399,457.5C 399.192,455.423 399.692,453.423 400.5,451.5C 401.281,452.729 401.781,454.062 402,455.5C 403.011,454.663 404.178,454.33 405.5,454.5C 405.337,452.143 405.503,449.81 406,447.5C 406.699,452.281 407.199,452.447 407.5,448C 407.746,445.328 407.079,443.828 405.5,443.5C 406.037,442.259 406.704,441.092 407.5,440C 406.955,436.935 406.955,433.769 407.5,430.5C 407.545,426.682 406.878,423.015 405.5,419.5C 405.601,415.701 407.267,414.368 410.5,415.5 Z"/></g>
<g><path style="opacity:1" fill="#5d5872" d="M 410.5,457.5 C 410.985,464.907 411.985,472.241 413.5,479.5C 413.833,479.5 414.167,479.5 414.5,479.5C 421.833,481.5 429.167,483.5 436.5,485.5C 438.043,484.264 439.043,482.598 439.5,480.5C 439.376,479.893 439.043,479.56 438.5,479.5C 438.184,476.022 438.684,472.688 440,469.5C 440.196,471.286 441.029,472.619 442.5,473.5C 444.179,471.896 446.179,471.229 448.5,471.5C 448.681,477.223 449.347,482.89 450.5,488.5C 451.482,494.327 449.149,496.494 443.5,495C 442.366,493.984 442.699,493.317 444.5,493C 443.101,492.405 441.768,492.572 440.5,493.5C 439.522,493.023 438.689,492.357 438,491.5C 436.301,492.406 434.467,492.739 432.5,492.5C 422.422,490.235 412.422,488.235 402.5,486.5C 407.066,486.975 411.566,486.975 416,486.5C 421.471,487.744 426.971,488.744 432.5,489.5C 432.773,487.549 432.107,486.049 430.5,485C 426.181,484.24 421.848,483.573 417.5,483C 412.452,481.823 409.118,478.823 407.5,474C 407.764,468.104 408.764,462.604 410.5,457.5 Z"/></g>
<g><path style="opacity:1" fill="#575074" d="M 286.5,462.5 C 287.388,465.054 287.721,467.721 287.5,470.5C 292.81,471.554 298.143,471.554 303.5,470.5C 316.572,470.641 329.572,471.641 342.5,473.5C 342.719,474.675 342.386,475.675 341.5,476.5C 339.425,475.238 337.425,475.405 335.5,477C 324.906,477.318 314.406,477.484 304,477.5C 301.435,475.821 298.602,475.154 295.5,475.5C 295.5,476.5 295.5,477.5 295.5,478.5C 289.207,477.771 282.874,478.105 276.5,479.5C 274.192,479.635 272.192,478.969 270.5,477.5C 268.941,478.447 267.274,479.113 265.5,479.5C 262.687,478.771 260.687,477.604 259.5,476C 261.389,474.236 263.389,472.736 265.5,471.5C 265.833,471.5 266.167,471.5 266.5,471.5C 267.167,471.5 267.5,471.167 267.5,470.5C 268.167,463.167 268.833,455.833 269.5,448.5C 270.858,447.374 272.192,447.374 273.5,448.5C 274.752,450.001 275.752,451.668 276.5,453.5C 278.577,452.012 279.577,450.012 279.5,447.5C 280.822,447.33 281.989,447.663 283,448.5C 284.287,452.847 284.454,457.18 283.5,461.5C 284.133,463.519 285.133,463.853 286.5,462.5 Z"/></g>
<g><path style="opacity:1" fill="#514a76" d="M 215.5,484.5 C 220.455,484.682 224.955,483.348 229,480.5C 229.5,480.833 230,481.167 230.5,481.5C 229.998,482.716 229.665,483.883 229.5,485C 224.985,485.614 220.652,486.448 216.5,487.5C 208.162,489.048 199.829,490.548 191.5,492C 188.921,493.467 186.254,494.634 183.5,495.5C 185.094,487.591 185.761,479.591 185.5,471.5C 187.451,471.773 188.951,471.107 190,469.5C 190.333,470.167 190.667,470.833 191,471.5C 191.954,467.41 191.454,463.577 189.5,460C 191.847,458.419 191.847,457.086 189.5,456C 190.444,453.281 190.777,450.448 190.5,447.5C 191.5,447.5 192.5,447.5 193.5,447.5C 193.517,452.254 194.184,456.921 195.5,461.5C 195.557,467.477 195.224,473.477 194.5,479.5C 194.833,480.167 195.167,480.833 195.5,481.5C 196.396,480.494 197.062,480.494 197.5,481.5C 194.71,483.927 194.876,485.927 198,487.5C 203.999,486.946 209.833,485.946 215.5,484.5 Z"/></g>
<g><path style="opacity:1" fill="#dad7e8" d="M 373.5,472.5 C 373.5,472.167 373.5,471.833 373.5,471.5C 379.635,471.177 385.635,471.844 391.5,473.5C 391.158,474.338 390.492,474.672 389.5,474.5C 384.196,473.616 378.863,472.949 373.5,472.5 Z"/></g>
<g><path style="opacity:1" fill="#a9a5b8" d="M 337.5,479.5 C 335.167,479.5 332.833,479.5 330.5,479.5C 317.15,479.361 303.817,479.694 290.5,480.5C 287.5,480.5 284.5,480.5 281.5,480.5C 300.143,478.458 318.81,478.124 337.5,479.5 Z"/></g>
<g><path style="opacity:1" fill="#cfcdd9" d="M 330.5,479.5 C 332.833,479.5 335.167,479.5 337.5,479.5C 345.063,479.228 352.397,479.895 359.5,481.5C 349.658,481.177 339.992,480.511 330.5,479.5 Z"/></g>
<g><path style="opacity:1" fill="#e6e5f0" d="M 281.5,480.5 C 284.5,480.5 287.5,480.5 290.5,480.5C 286.283,481.014 282.116,482.014 278,483.5C 271.875,482.525 265.875,482.525 260,483.5C 255.118,484.693 250.285,486.026 245.5,487.5C 243.504,486.39 241.671,486.724 240,488.5C 237.959,487.577 235.792,487.244 233.5,487.5C 233.5,487.167 233.5,486.833 233.5,486.5C 241.378,485.882 249.045,484.548 256.5,482.5C 264.808,481.54 273.141,480.873 281.5,480.5 Z"/></g>
<g><path style="opacity:1" fill="#69667c" d="M 256.5,482.5 C 249.045,484.548 241.378,485.882 233.5,486.5C 233.167,486.5 232.833,486.5 232.5,486.5C 232.611,485.883 232.944,485.383 233.5,485C 241.14,483.838 248.806,483.005 256.5,482.5 Z"/></g>
<g><path style="opacity:1" fill="#878497" d="M 389.5,484.5 C 392.85,484.335 396.183,484.502 399.5,485C 400.416,485.278 401.082,485.778 401.5,486.5C 397.295,486.283 393.295,485.617 389.5,484.5 Z"/></g>
<g><path style="opacity:1" fill="#b6b4c1" d="M 230.5,486.5 C 231.167,486.5 231.833,486.5 232.5,486.5C 232.833,486.5 233.167,486.5 233.5,486.5C 233.5,486.833 233.5,487.167 233.5,487.5C 228.869,488.329 224.202,488.996 219.5,489.5C 220.5,488.833 221.5,488.167 222.5,487.5C 225.237,487.599 227.904,487.265 230.5,486.5 Z"/></g>
<g><path style="opacity:1" fill="#a6a4b3" d="M 445.5,496.5 C 448.152,496.41 450.485,497.076 452.5,498.5C 449.848,498.59 447.515,497.924 445.5,496.5 Z"/></g>
<g><path style="opacity:1" fill="#e7e5f1" d="M 195.5,495.5 C 194.351,498.826 192.184,499.826 189,498.5C 185.412,500.181 181.578,500.848 177.5,500.5C 183.274,498.471 189.274,496.804 195.5,495.5 Z"/></g>
<g><path style="opacity:1" fill="#565073" d="M 199.5,480.5 C 199.5,481.833 199.5,483.167 199.5,484.5C 201.099,484.768 202.432,484.434 203.5,483.5C 209.448,481.963 215.448,480.629 221.5,479.5C 222.491,473.021 222.824,466.354 222.5,459.5C 223.198,456.103 223.865,452.603 224.5,449C 224.043,448.586 223.709,448.086 223.5,447.5C 224.689,446.571 226.022,446.238 227.5,446.5C 227.613,443.951 226.946,441.618 225.5,439.5C 227.229,437.149 227.896,434.482 227.5,431.5C 228.833,431.5 230.167,431.5 231.5,431.5C 231.423,434.012 232.423,436.012 234.5,437.5C 236.382,435.758 237.882,433.758 239,431.5C 239.617,432.449 239.451,433.282 238.5,434C 238.915,436.026 239.915,437.526 241.5,438.5C 242.495,450.322 242.828,462.322 242.5,474.5C 239.535,473.418 239.035,471.751 241,469.5C 241.816,460.121 241.483,450.787 240,441.5C 239.798,443.256 239.298,444.922 238.5,446.5C 234.133,447.261 230.133,447.928 226.5,448.5C 229.5,449.167 232.5,449.833 235.5,450.5C 236.544,451.623 237.21,452.956 237.5,454.5C 235.11,461.296 230.776,462.963 224.5,459.5C 222.698,465.384 223.198,471.051 226,476.5C 227.183,475.269 228.349,475.269 229.5,476.5C 228.5,477.833 227.5,479.167 226.5,480.5C 222.674,481.696 219.007,483.029 215.5,484.5C 209.833,485.946 203.999,486.946 198,487.5C 194.876,485.927 194.71,483.927 197.5,481.5C 197.062,480.494 196.396,480.494 195.5,481.5C 195.167,480.833 194.833,480.167 194.5,479.5C 195.224,473.477 195.557,467.477 195.5,461.5C 194.184,456.921 193.517,452.254 193.5,447.5C 192.5,447.5 191.5,447.5 190.5,447.5C 190.777,450.448 190.444,453.281 189.5,456C 191.847,457.086 191.847,458.419 189.5,460C 191.454,463.577 191.954,467.41 191,471.5C 190.667,470.833 190.333,470.167 190,469.5C 188.951,471.107 187.451,471.773 185.5,471.5C 185.761,479.591 185.094,487.591 183.5,495.5C 186.254,494.634 188.921,493.467 191.5,492C 199.829,490.548 208.162,489.048 216.5,487.5C 218.5,487.5 220.5,487.5 222.5,487.5C 221.5,488.167 220.5,488.833 219.5,489.5C 211.16,490.585 203.16,492.585 195.5,495.5C 189.274,496.804 183.274,498.471 177.5,500.5C 169.303,502.566 161.303,505.232 153.5,508.5C 149.075,509.546 144.742,510.879 140.5,512.5C 135.26,511.587 135.26,510.587 140.5,509.5C 140.863,508.817 141.196,508.15 141.5,507.5C 154.134,501.352 167.134,496.019 180.5,491.5C 181.492,491.672 182.158,491.338 182.5,490.5C 183.497,468.673 183.831,446.673 183.5,424.5C 184.761,413.718 185.428,403.051 185.5,392.5C 186.425,393.641 187.259,393.641 188,392.5C 188.26,394.618 189.26,396.284 191,397.5C 191.303,393.106 191.97,388.773 193,384.5C 194.085,382.343 195.251,382.176 196.5,384C 195.167,389.333 195.167,394.667 196.5,400C 195.833,400.333 195.167,400.667 194.5,401C 195.371,405.448 196.204,409.948 197,414.5C 197.085,436.689 197.918,458.689 199.5,480.5 Z"/></g>
<g><path style="opacity:1" fill="#686474" d="M 493.5,507.5 C 508.406,513.618 522.406,521.284 535.5,530.5C 534.833,530.5 534.167,530.5 533.5,530.5C 517.413,522.37 501.079,515.037 484.5,508.5C 487.713,508.81 490.713,508.477 493.5,507.5 Z"/></g>
<g><path style="opacity:1" fill="#e4e2ef" d="M 153.5,508.5 C 151.456,510.934 148.956,512.934 146,514.5C 144.301,513.594 142.467,513.261 140.5,513.5C 140.5,513.167 140.5,512.833 140.5,512.5C 144.742,510.879 149.075,509.546 153.5,508.5 Z"/></g>
<g><path style="opacity:1" fill="#ece9f4" d="M 140.5,513.5 C 139.77,515.045 138.437,515.878 136.5,516C 137.833,516.667 137.833,517.333 136.5,518C 133.554,518.806 130.888,520.139 128.5,522C 123.993,522.425 119.659,523.258 115.5,524.5C 123.638,520.603 131.971,516.936 140.5,513.5 Z"/></g>
<g><path style="opacity:1" fill="#5f5c6f" d="M 141.5,507.5 C 141.196,508.15 140.863,508.817 140.5,509.5C 135.26,510.587 135.26,511.587 140.5,512.5C 140.5,512.833 140.5,513.167 140.5,513.5C 131.971,516.936 123.638,520.603 115.5,524.5C 109.041,527.229 102.708,530.229 96.5,533.5C 95.8333,533.5 95.5,533.167 95.5,532.5C 102.948,528.225 110.281,523.725 117.5,519C 125.369,514.899 133.369,511.065 141.5,507.5 Z"/></g>
<g><path style="opacity:1" fill="#9c9c9e" d="M 533.5,530.5 C 534.167,530.5 534.833,530.5 535.5,530.5C 539.925,531.879 543.925,534.046 547.5,537C 547.167,537.167 546.833,537.333 546.5,537.5C 541.914,535.378 537.581,533.044 533.5,530.5 Z"/></g>
<g><path style="opacity:1" fill="#9e9e9e" d="M 95.5,532.5 C 95.5,533.167 95.8333,533.5 96.5,533.5C 89.3992,537.455 89.0659,537.122 95.5,532.5 Z"/></g>
</svg>
